<svg xmlns="http://www.w3.org/2000/svg" xmlns:xlink="http://www.w3.org/1999/xlink" viewBox="0 0 388.49 211.37"><defs><style>.cls-1{fill:url(#linear-gradient);}.cls-2{fill:url(#radial-gradient);}</style><linearGradient id="linear-gradient" x1="298.16" y1="203.62" x2="92.7" y2="62.37" gradientUnits="userSpaceOnUse"><stop offset="0" stop-color="#3b43ff"/><stop offset="1" stop-color="#2f38ea"/></linearGradient><radialGradient id="radial-gradient" cx="194.24" cy="134.46" fx="136.86174028922355" fy="250.9095909499378" r="143.12" gradientTransform="translate(23.27 229.75) rotate(-36.2) scale(1 0.18)" gradientUnits="userSpaceOnUse"><stop offset="0.12" stop-color="#3597ff"/><stop offset="0.15" stop-color="#3692ff"/><stop offset="0.72" stop-color="#4634f5"/></radialGradient></defs><g id="Layer_2" data-name="Layer 2"><g id="Layer_1-2" data-name="Layer 1"><path class="cls-1" d="M387.59,123.45a72.93,72.93,0,0,0-4.66-16.52,85.67,85.67,0,0,0-12-19.38,75.23,75.23,0,0,0-13.84-12.77c-12.5-9-19.13-10.77-19.13-10.77h0c-1.74-.67-3.49-1.3-5.26-1.86a103.75,103.75,0,0,0-38.42-3.9c-12.72,1.2-24.5,4.75-33.72,9.87C243,77.87,232.28,86.94,219,100.28c-8.14-10.41-16.14-20.63-26.22-31.56,0-.52,0-1,0-1.56H193c0-11.37-1.29-21.47-3.86-29.91s-5.69-15.41-10.09-20.92S169.7,6.61,163.83,4a45.39,45.39,0,0,0-37.44,0c-5.87,2.57-10.82,6.79-15.23,12.29a41.31,41.31,0,0,0-3,4.26q.61-1,1.29-2c-21-2.86-44.59,1.07-70.09,17.2C14.74,52,5.08,81.62,5.08,81.62S41.8,42.34,97.6,59.21q-.19,3.85-.2,7.95c0,11.38,1.1,21.47,3.67,29.91s5.69,15.42,10.09,20.92,9.36,9.73,15.23,12.3a45.39,45.39,0,0,0,37.44,0c5.87-2.57,10.83-6.79,15.23-12.3.68-.85,1.33-1.75,1.95-2.68h0c4.09,3.92,8.11,7.88,12.08,11.84-5.89,6.09-12.52,12.83-20.19,20.43-46,45.47-95.45,23.15-104.27-18.49s26.7-59.91,26.7-59.91C73.46,52.63,16.67,72.82,2.72,91.28c-8.44,33.31.67,92.83,57.08,114.59,80,25.54,126.14-45.41,140.8-60.51,1.55-1.6,3.24-3.49,5.05-5.59,19.17,19.35,37.42,37.6,56,49.45,21.49,13.67,44.15,21.14,64.78,19.76,26.69-2.43,45.16-19.11,55.31-39.41C391.11,150.93,388.17,127.39,387.59,123.45ZM169.29,85.27c-1.35,4.94-3,8.94-5.39,11.87a22.41,22.41,0,0,1-8.09,6.54,24,24,0,0,1-19.17,0,22.07,22.07,0,0,1-8.09-6.4c-2.39-2.94-4-7.07-5.39-12a71.43,71.43,0,0,1-2.1-18.41,70.26,70.26,0,0,1,2.1-18.28c1.35-4.94,3-8.94,5.39-11.88a22.62,22.62,0,0,1,8.09-6.54,23.72,23.72,0,0,1,9.59-2,23,23,0,0,1,9.43,2,22.62,22.62,0,0,1,8.09,6.54c2.4,2.94,4.19,7.07,5.54,12a70.72,70.72,0,0,1,2.1,18.21A71.82,71.82,0,0,1,169.29,85.27Zm136.09,83.52-.3-.09c-3.72-1.08-7.41-2.26-11-3.69a142.69,142.69,0,0,1-28.28-15.34l.12.13-.4-.27A129.64,129.64,0,0,1,240,126.92c-3.89-4.52-7.49-8.9-10.92-13.18C241.56,99.88,256,86.4,270.85,81.35c1.21-.4,2.42-.75,3.62-1.07h0S290.82,74.4,311,81v0a62.92,62.92,0,0,1,11.83,5.29l.26.15c.6.35,1.2.7,1.79,1.07l.52.31,0,0a64.87,64.87,0,0,1,9,7l.52.49a63.31,63.31,0,0,1,7.15,8v0a72.49,72.49,0,0,1,7.23,13.21c5.9,16,2.14,27.81-.4,33.14A37.34,37.34,0,0,1,305.38,168.79Z"/><path class="cls-2" d="M387.59,123.3a72.79,72.79,0,0,0-4.66-16.52A87.31,87.31,0,0,0,374,91.4,78.83,78.83,0,0,0,355.6,73.59c-11.56-8.15-17.68-9.74-17.68-9.74h0c-1.74-.67-3.49-1.3-5.26-1.85a103.8,103.8,0,0,0-38.42-3.91c-12.72,1.21-24.5,4.75-33.72,9.88C243,77.71,232.28,86.79,219,100.12l0,0c-7,6.84-19.15,19.63-26,26.83l.07.07c-1.61,1.67-3.29,3.39-5,5.17l0,0h0c-4.58,4.68-9.58,9.74-15.14,15.24-46,45.47-95.45,23.15-104.27-18.49C62.1,98.13,79.84,80.11,89.52,72.82a4.3,4.3,0,0,0-1-7.46c-24.72-9-71.67,8.47-85.16,25A4,4,0,0,0,2.5,92c-8,33.44,1.38,92,57.13,113.61a2,2,0,0,0,.34.12c79.65,25.32,125.75-45.13,140.52-60.46l.21-.23c1.61-2,22.3-27.26,31.54-36.55h0C243.87,96.1,257,84.6,270.45,80c1.21-.4,2.42-.75,3.62-1.07h0s16.34-5.87,36.49.7v0a62.92,62.92,0,0,1,11.83,5.29l.26.14c.6.35,1.2.71,1.79,1.08l.52.3,0,0a64.81,64.81,0,0,1,9,7l.53.5a63.22,63.22,0,0,1,7.14,8v0a72.49,72.49,0,0,1,7.23,13.21c.17.46.32.91.47,1.36h0s18.57,28,9.61,70.34a4.31,4.31,0,0,0,7.15,4.06,77.4,77.4,0,0,0,15.62-21.41C391.11,150.77,388.17,127.24,387.59,123.3Z"/></g></g></svg>